<svg id="Layer_1" data-name="Layer 1" xmlns="http://www.w3.org/2000/svg" viewBox="0 0 863.98 205.2"><defs><style>.cls-1{fill:#183945;}.cls-2{fill:#0d627d;}.cls-3{fill:#259869;}.cls-4{fill:#f8961d;}.cls-5{fill:#b41e56;}</style></defs><path class="cls-1" d="M377.17,124,353.54,86l-9.88,12.61V124H323.61V28.45h20.05V70l31.22-41.52h23.63l-32.08,41.1L400.51,124Z"/><path class="cls-1" d="M456.5,62.67c5.3,4.73,8,11.17,8,19V124H448.05l-1.86-6.44c-5.73,5.73-13,8.59-21.76,8.59-12.75,0-21.63-8.16-21.63-20.19,0-11.46,10-19,25.06-19h18.05v-4c0-7.44-5-11.74-13-11.74-5.87,0-12.31,2.15-19.33,6.59l-6.3-12.89c6.73-5.73,18-9.45,28.36-9.45C444.33,55.37,451.2,57.8,456.5,62.67ZM445.91,99.05V96.9H431.3c-6.16,0-10.17,3.43-10.17,8.16s3.87,8,9.74,8C439.89,113.08,445.91,107.49,445.91,99.05Z"/><path class="cls-1" d="M479.84,124V30.59l18.48-2.14V124Z"/><path class="cls-1" d="M513.92,36.47c0-6.16,4.44-10.17,11.17-10.17,6.45,0,10.74,4,10.74,10.17,0,5.87-4.29,9.73-10.74,9.73C518.36,46.2,513.92,42.34,513.92,36.47ZM515.64,124V57.52h18.48V124Z"/><path class="cls-1" d="M644.52,62.67c4.58,4.87,6.88,11.31,6.88,19.19V124H632.92V85.58c0-8-4.15-12.74-11.45-12.74-7,0-11.17,5-11.17,13.17V124H592.68V86c0-8.16-4.29-13.17-11.31-13.17s-11.31,5-11.31,13.17V124H551.58V57.23l16.33-1.86L569.2,64a23.65,23.65,0,0,1,18.9-8.59c8,0,14.32,3.29,18.76,9.88,5-6.59,11.46-9.88,19.48-9.88C633.93,55.37,639.94,57.8,644.52,62.67Z"/><path class="cls-1" d="M715.69,62.67c5.3,4.73,8,11.17,8,19V124H707.24l-1.86-6.44c-5.73,5.73-13,8.59-21.77,8.59-12.74,0-21.62-8.16-21.62-20.19,0-11.46,10-19,25.06-19h18v-4c0-7.44-5-11.74-13-11.74-5.87,0-12.31,2.15-19.33,6.59l-6.3-12.89c6.73-5.73,18-9.45,28.35-9.45C703.52,55.37,710.39,57.8,715.69,62.67Zm-10.6,36.38V96.9h-14.6c-6.16,0-10.17,3.43-10.17,8.16s3.86,8,9.74,8C699.08,113.08,705.09,107.49,705.09,99.05Z"/><path class="cls-2" d="M94.09,124l-5-16.18H53.85l-5,16.18H27.07L60,28.45h23.2L115.86,124ZM59,91.6H83.93l-12.46-40Z"/><path class="cls-3" d="M168.7,56.08,167,75.27a36.82,36.82,0,0,0-6.15-.71c-11.6,0-18.62,6.87-18.62,18.9V124H123.74V57.52l16.32-2.15,1.58,10.88c4.44-7.3,11.17-10.88,20.19-10.88A30.67,30.67,0,0,1,168.7,56.08Z"/><path class="cls-4" d="M224.55,121a33.89,33.89,0,0,1-18.05,5.15c-14.75,0-23.34-9.45-23.34-25.49V73.13h-9.88v-14l9.88-1.57,2.15-17.62,16.33-2.15V57.52h17.75l-1,15.61H201.64v26.92c0,7,2.72,10.59,8.16,10.59a17.8,17.8,0,0,0,8.73-2.43Z"/><path class="cls-5" d="M258.05,97.47l-5.44-1.58c-13-3.86-19.9-9-19.9-19.9,0-12.46,10-20.62,25.06-20.62a48.34,48.34,0,0,1,25.77,7l-6.15,13a32.23,32.23,0,0,0-17.9-5.73c-4.73,0-7.88,2.15-7.88,5.58,0,2.72,2.58,5,7.59,6.59l5.58,1.58c13.75,4.15,20.77,9.3,20.77,21.48,0,12.74-10.74,21.19-26.64,21.19-9.88,0-19.76-2.72-29.5-8.16L236,104.06c9.88,4.58,17.61,6.87,23.06,6.87,4.72,0,7.87-2.43,7.87-6.3C266.93,101.62,263.93,99.33,258.05,97.47Z"/><path class="cls-1" d="M746.89,126.42C760.77,108.49,770.3,88,781.13,68.14a190.45,190.45,0,0,1,18.58-28.63l2.8-3.26,1.41-1.63,1.5-1.54,3-3.08a7.2,7.2,0,0,1,1-.91,3.78,3.78,0,0,1,2-.67,3.89,3.89,0,0,1,3.48,1.84,3.7,3.7,0,0,1,.55,2,4,4,0,0,1-.14,1l-.15.52-.6,2.05c-.39,1.37-.81,2.72-1.24,4.08-.84,2.71-1.72,5.41-2.62,8.09-3.66,10.72-7.6,21.28-10.73,32a152.77,152.77,0,0,0-4,16.26l-.36,2.06-.18,1a.29.29,0,0,0,0,.15c0,.07.14.18.26.19a.22.22,0,0,0,.14,0s0,0,.37-.34l5.94-6,11.9-12.06,6-6,1.49-1.5.75-.76.38-.38a6.14,6.14,0,0,1,.47-.42,5.19,5.19,0,0,1,4.93-1,3.76,3.76,0,0,1,2,1.82,8.06,8.06,0,0,1,.71,2.26,26.4,26.4,0,0,1,.45,4.34A26,26,0,0,1,830,88.21c-.46,1.38-1,2.66-1.47,4a8.76,8.76,0,0,0-.52,4,3.92,3.92,0,0,0,2.38,3,3.54,3.54,0,0,0,2,.32A2.17,2.17,0,0,0,834,98.37a2.22,2.22,0,0,1-1.61,1.3,3.82,3.82,0,0,1-2.14-.19,4.32,4.32,0,0,1-2.84-3.18,9.22,9.22,0,0,1,.32-4.34c.38-1.39.9-2.72,1.26-4a24.56,24.56,0,0,0,.81-8.18,24,24,0,0,0-.63-4c-.29-1.33-.82-2.42-1.72-2.64a3.3,3.3,0,0,0-3,.77q-.15.14-.3.3l-.35.38-.72.78-1.44,1.55L815.91,83l-11.54,12.4-5.78,6.19a4.55,4.55,0,0,1-1.23,1,3.47,3.47,0,0,1-1.92.37,3.6,3.6,0,0,1-3-2.15,3.71,3.71,0,0,1-.26-1.93l.17-1.06.33-2.12a162.68,162.68,0,0,1,3.77-16.7c3.08-11,7-21.59,10.59-32.26.91-2.66,1.8-5.33,2.64-8,.43-1.34.85-2.68,1.24-4l.6-2,.15-.5s0,0,0,0h0s-.08-.07-.08-.06h0c.06-.07-.34.32-.54.53l-2.93,2.95-1.46,1.48-1.37,1.57-2.76,3.12c-7.16,8.54-13.07,18.1-18.77,27.79s-11,19.68-17,29.33S754.42,118,746.89,126.42Z"/><path class="cls-2" d="M46.77,142.53h-16v12.95h15.1l-.37,3.2H30.78V174.1H27.27v-35h19.5Z"/><path class="cls-2" d="M71.47,153.34c2,2.46,2.83,5.66,2.52,9.69H54c.36,5.51,4.09,9,9.54,9a13.71,13.71,0,0,0,8.18-2.62l1.15,2.31a16.69,16.69,0,0,1-9.54,3,12.21,12.21,0,0,1-9-3.46,12.37,12.37,0,0,1-3.46-9.18,12.22,12.22,0,0,1,3.36-9,11.9,11.9,0,0,1,8.91-3.46A10.1,10.1,0,0,1,71.47,153.34Zm-.63,7.23c0-4.88-3.15-8.13-7.76-8.13A8.69,8.69,0,0,0,54,160.57Z"/><path class="cls-2" d="M99.05,153.34c2,2.46,2.83,5.66,2.52,9.69h-20c.36,5.51,4.09,9,9.54,9a13.71,13.71,0,0,0,8.18-2.62l1.15,2.31a16.69,16.69,0,0,1-9.54,3,12.21,12.21,0,0,1-9-3.46,12.37,12.37,0,0,1-3.46-9.18,12.22,12.22,0,0,1,3.36-9,11.9,11.9,0,0,1,8.91-3.46A10.1,10.1,0,0,1,99.05,153.34Zm-.63,7.23c0-4.88-3.15-8.13-7.76-8.13a8.69,8.69,0,0,0-9.07,8.13Z"/><path class="cls-2" d="M107.7,174.1V139.54l3.25-.41v35Z"/><path class="cls-2" d="M147.18,173.1a9.47,9.47,0,0,1-5.4,1.63c-4.14,0-6.76-2.68-6.76-7V153.12h-4.19v-2.51l4.19-.32.42-6.6,2.83-.47v7.07h7.66l-.16,2.83h-7.5v14.53c0,2.57,1.52,4.25,3.88,4.25a7.18,7.18,0,0,0,3.83-1.11Z"/><path class="cls-2" d="M170.36,152.29a9.56,9.56,0,0,1,2.67,7.07V174.1h-3.19V159.89c0-4.41-2.73-7.08-7.19-7.08s-7.18,2.67-7.18,7.08V174.1h-3.25V139.54l3.25-.41v14.26q2.59-3.78,7.86-3.78A9.5,9.5,0,0,1,170.36,152.29Z"/><path class="cls-2" d="M199.72,153.34c2,2.46,2.84,5.66,2.52,9.69h-20c.37,5.51,4.09,9,9.54,9a13.71,13.71,0,0,0,8.18-2.62l1.16,2.31a16.75,16.75,0,0,1-9.55,3,12.17,12.17,0,0,1-9-3.46,13.86,13.86,0,0,1-.11-18.2,11.92,11.92,0,0,1,8.91-3.46A10.1,10.1,0,0,1,199.72,153.34Zm-.63,7.23c0-4.88-3.14-8.13-7.76-8.13a8.69,8.69,0,0,0-9.07,8.13Z"/><path class="cls-2" d="M240.2,158V174.1h-2.88L237,171c-1.94,2.52-4.93,3.78-8.91,3.78-4.56,0-7.66-2.68-7.66-6.71,0-3.83,3.15-6.4,7.92-6.4H237v-3.46c0-3.41-2.51-5.72-6.34-5.72a11.43,11.43,0,0,0-7.29,2.89L222,153.07a14,14,0,0,1,9-3.46C236.48,149.61,240.2,153,240.2,158ZM237,165v-1.21h-8.23c-3.09,0-5.14,1.57-5.14,4,0,2.67,2.1,4.35,5.24,4.35C233.7,172.21,237,169.38,237,165Z"/><path class="cls-2" d="M260.81,149.87l-.42,3.25a8.26,8.26,0,0,0-2-.21c-4.46,0-7.29,2.94-7.29,7.82V174.1h-3.25V150l2.88-.42.32,4a7.92,7.92,0,0,1,7.39-4A14.82,14.82,0,0,1,260.81,149.87Z"/><path class="cls-2" d="M279.84,173.1a9.47,9.47,0,0,1-5.4,1.63c-4.14,0-6.76-2.68-6.76-7V153.12h-4.19v-2.51l4.19-.32.42-6.6,2.83-.47v7.07h7.66l-.16,2.83h-7.5v14.53c0,2.57,1.52,4.25,3.88,4.25a7.18,7.18,0,0,0,3.83-1.11Z"/><path class="cls-2" d="M293,163.19l-1.83-.63c-4.56-1.62-6.5-3.3-6.5-6.5,0-3.83,3.14-6.45,7.91-6.45a14,14,0,0,1,8,2.47l-1.31,2.46a9.89,9.89,0,0,0-6.5-2.25c-2.78,0-4.66,1.46-4.66,3.61,0,1.89,1.36,3,4.45,4l1.84.63c4.82,1.68,7,3.57,7,7.13,0,4.25-3.41,7-8.49,7a18.32,18.32,0,0,1-9.44-2.89l1.31-2.57a16.12,16.12,0,0,0,8.29,2.68c3,0,5-1.73,5-4.25C298,165.6,296.41,164.4,293,163.19Z"/><path class="cls-2" d="M338.62,158V174.1h-2.88l-.37-3.15c-1.94,2.52-4.93,3.78-8.91,3.78-4.56,0-7.66-2.68-7.66-6.71,0-3.83,3.15-6.4,7.92-6.4h8.65v-3.46c0-3.41-2.52-5.72-6.34-5.72a11.43,11.43,0,0,0-7.29,2.89l-1.36-2.26a14,14,0,0,1,9-3.46C334.9,149.61,338.62,153,338.62,158ZM335.37,165v-1.21h-8.23c-3.09,0-5.14,1.57-5.14,4,0,2.67,2.1,4.35,5.24,4.35C332.12,172.21,335.37,169.38,335.37,165Z"/><path class="cls-2" d="M364.37,152.23a8.87,8.87,0,0,1,2.67,6.66V174.1h-3.25V159.52c0-4.14-2.67-6.71-7.08-6.71s-7.08,2.67-7.08,7.08V174.1h-3.25V150l2.89-.42.36,3.73c1.73-2.47,4.3-3.73,7.82-3.73A9.37,9.37,0,0,1,364.37,152.23Z"/><path class="cls-2" d="M394,139.54l3.25-.41v35h-2.88l-.31-3.46q-3.07,4.08-9.44,4.09a11.08,11.08,0,0,1-8.39-3.41,12.65,12.65,0,0,1-3.15-9,12.35,12.35,0,0,1,3.52-9.23,12.52,12.52,0,0,1,9.28-3.51,12.81,12.81,0,0,1,8.18,2.78Zm0,16.21a12.08,12.08,0,0,0-7.86-3.2,9.26,9.26,0,0,0-9.7,9.7,9.87,9.87,0,0,0,2.41,7,8.3,8.3,0,0,0,6.4,2.68c5.24,0,8.75-3.15,8.75-7.76Z"/><path class="cls-2" d="M419.32,141.17a2.43,2.43,0,0,1,2.62-2.46,2.34,2.34,0,0,1,2.47,2.46,2.25,2.25,0,0,1-2.47,2.31C420.32,143.48,419.32,142.59,419.32,141.17Zm.94,32.93V150.29h3.2V174.1Z"/><path class="cls-2" d="M450.47,152.23a8.87,8.87,0,0,1,2.67,6.66V174.1h-3.25V159.52c0-4.14-2.68-6.71-7.08-6.71s-7.08,2.67-7.08,7.08V174.1h-3.25V150l2.88-.42.37,3.73c1.73-2.47,4.3-3.73,7.81-3.73A9.4,9.4,0,0,1,450.47,152.23Z"/><path class="cls-2" d="M468.13,163.19l-1.83-.63c-4.56-1.62-6.5-3.3-6.5-6.5,0-3.83,3.14-6.45,7.92-6.45a14,14,0,0,1,8,2.47l-1.32,2.46a9.89,9.89,0,0,0-6.5-2.25c-2.78,0-4.66,1.46-4.66,3.61,0,1.89,1.36,3,4.45,4l1.84.63c4.82,1.68,7,3.57,7,7.13,0,4.25-3.41,7-8.5,7a18.32,18.32,0,0,1-9.44-2.89l1.31-2.57a16.12,16.12,0,0,0,8.29,2.68c3,0,5-1.73,5-4.25C473.17,165.6,471.54,164.4,468.13,163.19Z"/><path class="cls-2" d="M503,153a12.78,12.78,0,0,1-9.6,21.71,12.28,12.28,0,0,1-8.17-2.73v12.32l-3.26.42V150l2.89-.42.37,4.09c2-2.73,5.13-4.09,9.38-4.09A10.9,10.9,0,0,1,503,153Zm-2.88,16.15a9.41,9.41,0,0,0,2.72-7.08c0-5.71-3.56-9.54-8.86-9.54s-8.75,3.09-8.75,7.71v8.44a12.25,12.25,0,0,0,7.86,3.14A9.55,9.55,0,0,0,500.07,169.17Z"/><path class="cls-2" d="M512.49,141.17a2.44,2.44,0,0,1,2.63-2.46,2.34,2.34,0,0,1,2.46,2.46,2.25,2.25,0,0,1-2.46,2.31C513.49,143.48,512.49,142.59,512.49,141.17Zm1,32.93V150.29h3.2V174.1Z"/><path class="cls-2" d="M538.66,149.87l-.42,3.25a8.29,8.29,0,0,0-2-.21c-4.45,0-7.28,2.94-7.28,7.82V174.1h-3.25V150l2.88-.42.31,4a8,8,0,0,1,7.4-4A14.82,14.82,0,0,1,538.66,149.87Z"/><path class="cls-2" d="M562.25,153.34c2,2.46,2.83,5.66,2.52,9.69h-20c.37,5.51,4.09,9,9.54,9a13.69,13.69,0,0,0,8.18-2.62l1.16,2.31a16.75,16.75,0,0,1-9.55,3,12.17,12.17,0,0,1-9-3.46,13.83,13.83,0,0,1-.11-18.2,11.92,11.92,0,0,1,8.91-3.46A10.1,10.1,0,0,1,562.25,153.34Zm-.63,7.23c0-4.88-3.14-8.13-7.76-8.13a8.69,8.69,0,0,0-9.07,8.13Z"/><path class="cls-2" d="M586.58,171.27a13.88,13.88,0,0,1,0-18.2,13.28,13.28,0,0,1,17.88,0,13.85,13.85,0,0,1,0,18.2,13.28,13.28,0,0,1-17.88,0Zm15.42-16a8.73,8.73,0,0,0-6.5-2.57c-5.25,0-9.07,3.67-9.13,9.49a9.09,9.09,0,0,0,2.57,6.86,9,9,0,0,0,6.56,2.63,8.77,8.77,0,0,0,6.5-2.57,10.45,10.45,0,0,0,0-13.84Z"/><path class="cls-2" d="M628.22,173.1a9.5,9.5,0,0,1-5.4,1.63c-4.15,0-6.77-2.68-6.77-7V153.12h-4.19v-2.51l4.19-.32.42-6.6,2.83-.47v7.07H627l-.16,2.83h-7.5v14.53c0,2.57,1.52,4.25,3.88,4.25a7.16,7.16,0,0,0,3.83-1.11Z"/><path class="cls-2" d="M651.39,152.29a9.53,9.53,0,0,1,2.68,7.07V174.1h-3.2V159.89c0-4.41-2.73-7.08-7.18-7.08s-7.19,2.67-7.19,7.08V174.1h-3.25V139.54l3.25-.41v14.26q2.6-3.78,7.87-3.78A9.49,9.49,0,0,1,651.39,152.29Z"/><path class="cls-2" d="M680.76,153.34c2,2.46,2.83,5.66,2.51,9.69h-20c.37,5.51,4.09,9,9.55,9a13.68,13.68,0,0,0,8.17-2.62l1.16,2.31a16.74,16.74,0,0,1-9.54,3,12.18,12.18,0,0,1-9-3.46,13.86,13.86,0,0,1-.11-18.2,11.94,11.94,0,0,1,8.92-3.46A10.11,10.11,0,0,1,680.76,153.34Zm-.63,7.23c0-4.88-3.15-8.13-7.76-8.13a8.68,8.68,0,0,0-9.07,8.13Z"/><path class="cls-2" d="M702.2,149.87l-.42,3.25a8.2,8.2,0,0,0-2-.21c-4.46,0-7.29,2.94-7.29,7.82V174.1H689.2V150l2.88-.42.32,4a7.92,7.92,0,0,1,7.39-4A14.82,14.82,0,0,1,702.2,149.87Z"/><path class="cls-2" d="M714,163.19l-1.84-.63c-4.56-1.62-6.5-3.3-6.5-6.5,0-3.83,3.15-6.45,7.92-6.45a14,14,0,0,1,8,2.47l-1.31,2.46a9.93,9.93,0,0,0-6.5-2.25c-2.78,0-4.67,1.46-4.67,3.61,0,1.89,1.36,3,4.45,4l1.84.63c4.82,1.68,7,3.57,7,7.13,0,4.25-3.41,7-8.5,7a18.32,18.32,0,0,1-9.44-2.89l1.32-2.57A16.07,16.07,0,0,0,714,172c3,0,5-1.73,5-4.25C719,165.6,717.35,164.4,714,163.19Z"/></svg>