<?xml version="1.0" encoding="utf-8"?>
<!-- Generator: Adobe Illustrator 25.4.1, SVG Export Plug-In . SVG Version: 6.00 Build 0)  -->
<svg version="1.1" id="Layer_1" xmlns="http://www.w3.org/2000/svg" xmlns:xlink="http://www.w3.org/1999/xlink" x="0px" y="0px"
	 viewBox="0 0 863.98 205.2" style="enable-background:new 0 0 863.98 205.2;" xml:space="preserve">
<style type="text/css">
	.st0{opacity:0.88;fill:#183945;}
	.st1{opacity:0.25;fill:#F3F3F3;}
	.st2{fill:#231F20;}
	.st3{fill:#E91D25;}
	.st4{fill:#FFFFFF;}
	.st5{fill:none;stroke:#FFFFFF;stroke-miterlimit:10;}
	.st6{fill:none;stroke:#FFFFFF;stroke-width:0.5;stroke-miterlimit:10;}
	.st7{fill:#CCCCCC;}
	.st8{fill:#989898;}
	.st9{clip-path:url(#SVGID_00000126306313972128249200000016769339449020999602_);fill:#FFFFFF;}
	.st10{fill:#F79E1D;}
	.st11{opacity:0.56;}
	.st12{fill:#183945;}
	.st13{fill:#A7A9AC;}
	.st14{fill:#0D627D;}
	.st15{fill:#259869;}
	.st16{fill:#F8961D;}
	.st17{fill:#B41E56;}
</style>
<g>
	<path class="st4" d="M382.8,121.02l-23.34-37.48l-9.76,12.45v25.03h-19.8V26.68h19.8V67.7l30.83-41.02h23.34l-31.68,40.59
		l33.66,53.75H382.8z"/>
	<path class="st4" d="M461.16,60.48c5.23,4.67,7.92,11.03,7.92,18.81v41.72h-16.27l-1.84-6.36c-5.66,5.66-12.87,8.49-21.5,8.49
		c-12.59,0-21.36-8.06-21.36-19.94c0-11.31,9.9-18.81,24.75-18.81h17.82v-3.96c0-7.35-4.95-11.6-12.87-11.6
		c-5.8,0-12.16,2.12-19.09,6.51L412.5,62.6c6.65-5.66,17.82-9.33,28.01-9.33C449.13,53.27,455.92,55.67,461.16,60.48z M450.69,96.41
		v-2.12h-14.43c-6.08,0-10.04,3.39-10.04,8.06c0,4.67,3.82,7.92,9.62,7.92C444.75,110.27,450.69,104.75,450.69,96.41z"/>
	<path class="st4" d="M484.21,121.02V28.8l18.25-2.12v94.34H484.21z"/>
	<path class="st4" d="M517.87,34.6c0-6.08,4.38-10.04,11.03-10.04c6.36,0,10.61,3.96,10.61,10.04c0,5.8-4.24,9.62-10.61,9.62
		C522.25,44.22,517.87,40.4,517.87,34.6z M519.57,121.02V55.39h18.25v65.63H519.57z"/>
	<path class="st4" d="M646.86,60.48c4.53,4.81,6.79,11.17,6.79,18.95v41.58H635.4V83.11c0-7.92-4.1-12.59-11.31-12.59
		c-6.93,0-11.03,4.95-11.03,13.01v37.48h-17.4V83.54c0-8.06-4.24-13.01-11.17-13.01c-6.93,0-11.17,4.95-11.17,13.01v37.48h-18.25
		V55.11l16.12-1.84l1.27,8.49c4.81-5.66,11.03-8.49,18.67-8.49c7.92,0,14.14,3.25,18.53,9.76c4.95-6.51,11.31-9.76,19.24-9.76
		C636.39,53.27,642.33,55.67,646.86,60.48z"/>
	<path class="st4" d="M717.15,60.48c5.23,4.67,7.92,11.03,7.92,18.81v41.72H708.8l-1.84-6.36c-5.66,5.66-12.87,8.49-21.5,8.49
		c-12.59,0-21.36-8.06-21.36-19.94c0-11.31,9.9-18.81,24.75-18.81h17.82v-3.96c0-7.35-4.95-11.6-12.87-11.6
		c-5.8,0-12.16,2.12-19.09,6.51l-6.22-12.73c6.65-5.66,17.82-9.33,28.01-9.33C705.13,53.27,711.92,55.67,717.15,60.48z
		 M706.68,96.41v-2.12h-14.43c-6.08,0-10.04,3.39-10.04,8.06c0,4.67,3.82,7.92,9.62,7.92C700.74,110.27,706.68,104.75,706.68,96.41z
		"/>
	<g>
		<path class="st4" d="M103.21,121.02l-4.95-15.98H63.47l-4.95,15.98h-21.5l32.53-94.34h22.91l32.25,94.34H103.21z M68.56,89.05
			h24.61L80.87,49.59L68.56,89.05z"/>
		<path class="st4" d="M176.9,53.98l-1.7,18.95c-2.4-0.42-4.38-0.71-6.08-0.71c-11.46,0-18.39,6.79-18.39,18.67v30.13h-18.25V55.39
			l16.12-2.12l1.56,10.75c4.38-7.21,11.03-10.75,19.94-10.75C172.8,53.27,175.06,53.55,176.9,53.98z"/>
		<path class="st4" d="M232.06,118.05c-5.52,3.39-11.46,5.09-17.82,5.09c-14.57,0-23.05-9.34-23.05-25.18V70.81h-9.76V56.95
			l9.76-1.56l2.12-17.4l16.12-2.12v19.52h17.54l-0.99,15.42h-16.55V97.4c0,6.93,2.69,10.47,8.06,10.47c2.97,0,5.8-0.85,8.63-2.4
			L232.06,118.05z"/>
		<path class="st4" d="M265.15,94.85l-5.37-1.56c-12.87-3.82-19.66-8.91-19.66-19.66c0-12.3,9.9-20.37,24.75-20.37
			c9.33,0,17.82,2.26,25.46,6.93l-6.08,12.87c-5.8-3.82-11.74-5.66-17.68-5.66c-4.67,0-7.78,2.12-7.78,5.52
			c0,2.69,2.55,4.95,7.5,6.51l5.52,1.56c13.58,4.1,20.51,9.19,20.51,21.22c0,12.59-10.61,20.93-26.31,20.93
			c-9.76,0-19.52-2.69-29.14-8.06l6.51-13.72c9.76,4.53,17.4,6.79,22.77,6.79c4.67,0,7.78-2.4,7.78-6.22
			C273.92,98.95,270.95,96.69,265.15,94.85z"/>
	</g>
	<path class="st16" d="M747.97,123.45c13.71-17.71,23.11-37.95,33.81-57.57c5.37-9.81,11.23-19.46,18.35-28.27l2.77-3.22l1.39-1.61
		l1.48-1.52l2.98-3.04c0.3-0.28,0.36-0.43,0.99-0.91c0.55-0.38,1.24-0.63,1.94-0.66c1.41-0.07,2.7,0.64,3.44,1.82
		c0.37,0.59,0.56,1.32,0.54,2c0.01,0.35-0.07,0.67-0.14,0.99l-0.15,0.51l-0.59,2.02c-0.39,1.35-0.8,2.69-1.22,4.03
		c-0.83,2.68-1.7,5.34-2.59,7.99c-3.61,10.59-7.5,21.02-10.6,31.64c-1.56,5.3-2.91,10.66-3.9,16.07l-0.35,2.03l-0.17,1.01
		c-0.01,0.08,0,0.11,0.01,0.15c0,0.07,0.14,0.18,0.26,0.19c0.06,0.01,0.09,0,0.13-0.01c0.04-0.03,0.05-0.01,0.37-0.34l5.87-5.96
		l11.75-11.91l5.9-5.93l1.47-1.48l0.74-0.74l0.37-0.38c0.15-0.15,0.3-0.29,0.47-0.42c1.3-1.06,3.15-1.56,4.87-0.97
		c0.88,0.32,1.63,1.04,2,1.8c0.4,0.76,0.57,1.52,0.7,2.23c0.26,1.42,0.42,2.85,0.44,4.29c0.05,2.87-0.38,5.73-1.28,8.44
		c-0.45,1.36-1.02,2.63-1.45,3.93c-0.43,1.29-0.71,2.64-0.51,3.95c0.13,1.32,1.12,2.42,2.35,2.98c0.61,0.28,1.3,0.42,1.98,0.32
		c0.67-0.09,1.3-0.51,1.62-1.14c-0.27,0.65-0.89,1.14-1.59,1.28c-0.7,0.16-1.44,0.05-2.11-0.2c-1.33-0.48-2.55-1.64-2.81-3.14
		c-0.31-1.45-0.05-2.93,0.32-4.29c0.37-1.37,0.88-2.68,1.24-3.99c0.72-2.63,0.99-5.38,0.8-8.08c-0.09-1.35-0.31-2.69-0.62-4
		c-0.29-1.32-0.81-2.39-1.7-2.61c-0.96-0.27-2.14,0.02-2.96,0.76c-0.11,0.09-0.2,0.19-0.3,0.29l-0.35,0.38l-0.71,0.77l-1.42,1.54
		l-5.68,6.15l-11.4,12.24l-5.71,6.12c-0.16,0.17-0.63,0.71-1.22,1c-0.58,0.3-1.26,0.42-1.89,0.36c-1.27-0.11-2.45-0.89-2.98-2.13
		c-0.26-0.61-0.34-1.29-0.25-1.9l0.16-1.05l0.33-2.09c0.92-5.58,2.22-11.07,3.72-16.49c3.04-10.83,6.93-21.33,10.46-31.87
		c0.9-2.63,1.78-5.26,2.61-7.9c0.42-1.32,0.84-2.64,1.23-3.97l0.59-1.99l0.15-0.49c-0.01-0.02,0.02-0.04,0-0.04
		c0-0.01,0.02,0.01,0.01,0.01c0-0.01-0.09-0.07-0.08-0.05c0,0,0.01,0-0.01,0c0.06-0.07-0.33,0.32-0.53,0.53l-2.89,2.91l-1.44,1.46
		l-1.35,1.55l-2.72,3.09c-7.07,8.43-12.91,17.87-18.55,27.44c-5.58,9.61-10.9,19.44-16.75,28.97
		C761.71,105.8,755.4,115.11,747.97,123.45z"/>
	<g>
		<path class="st4" d="M56.48,139.36h-15.8v12.79h14.91l-0.36,3.16H40.68v15.23h-3.47v-34.54h19.26V139.36z"/>
		<path class="st4" d="M80.87,150.03c1.97,2.43,2.8,5.59,2.49,9.58H63.57c0.36,5.44,4.04,8.91,9.42,8.91c3,0,5.7-0.88,8.08-2.59
			l1.14,2.28c-2.9,1.97-6.06,2.95-9.42,2.95c-3.68,0-6.63-1.14-8.91-3.42c-2.28-2.28-3.42-5.28-3.42-9.06
			c0-3.68,1.09-6.68,3.31-8.91c2.23-2.28,5.18-3.42,8.8-3.42C76.16,146.35,78.95,147.59,80.87,150.03z M80.25,157.17
			c0-4.82-3.11-8.03-7.66-8.03c-4.92,0-8.39,3.11-8.96,8.03H80.25z"/>
		<path class="st4" d="M108.11,150.03c1.97,2.43,2.8,5.59,2.49,9.58H90.81c0.36,5.44,4.04,8.91,9.43,8.91c3,0,5.7-0.88,8.08-2.59
			l1.14,2.28c-2.9,1.97-6.06,2.95-9.42,2.95c-3.68,0-6.63-1.14-8.91-3.42c-2.28-2.28-3.42-5.28-3.42-9.06
			c0-3.68,1.09-6.68,3.31-8.91c2.23-2.28,5.18-3.42,8.8-3.42C103.4,146.35,106.19,147.59,108.11,150.03z M107.49,157.17
			c0-4.82-3.11-8.03-7.66-8.03c-4.92,0-8.39,3.11-8.96,8.03H107.49z"/>
		<path class="st4" d="M116.65,170.54v-34.13l3.21-0.41v34.54H116.65z"/>
		<path class="st4" d="M155.65,169.55c-1.61,1.09-3.42,1.61-5.33,1.61c-4.09,0-6.68-2.64-6.68-6.94v-14.4h-4.14v-2.48l4.14-0.31
			l0.41-6.52l2.8-0.47v6.99h7.56l-0.16,2.8h-7.41v14.35c0,2.54,1.5,4.19,3.83,4.19c1.35,0,2.59-0.36,3.78-1.09L155.65,169.55z"/>
		<path class="st4" d="M178.54,148.99c1.76,1.76,2.64,4.09,2.64,6.99v14.55h-3.16V156.5c0-4.35-2.69-6.99-7.09-6.99
			s-7.09,2.64-7.09,6.99v14.03h-3.21v-34.13l3.21-0.41v14.09c1.71-2.48,4.3-3.73,7.77-3.73
			C174.45,146.35,176.78,147.23,178.54,148.99z"/>
		<path class="st4" d="M207.54,150.03c1.97,2.43,2.8,5.59,2.49,9.58h-19.78c0.36,5.44,4.04,8.91,9.42,8.91c3,0,5.7-0.88,8.08-2.59
			l1.14,2.28c-2.9,1.97-6.06,2.95-9.42,2.95c-3.68,0-6.63-1.14-8.91-3.42c-2.28-2.28-3.42-5.28-3.42-9.06
			c0-3.68,1.09-6.68,3.31-8.91c2.23-2.28,5.18-3.42,8.8-3.42C202.83,146.35,205.63,147.59,207.54,150.03z M206.92,157.17
			c0-4.82-3.11-8.03-7.66-8.03c-4.92,0-8.39,3.11-8.96,8.03H206.92z"/>
		<path class="st4" d="M247.52,154.58v15.95h-2.85l-0.36-3.11c-1.92,2.49-4.87,3.73-8.8,3.73c-4.51,0-7.56-2.64-7.56-6.63
			c0-3.78,3.11-6.32,7.82-6.32h8.54v-3.42c0-3.37-2.49-5.65-6.27-5.65c-2.43,0-4.87,0.93-7.2,2.85l-1.35-2.23
			c2.23-2.07,5.75-3.42,8.91-3.42C243.85,146.35,247.52,149.67,247.52,154.58z M244.31,161.58v-1.19h-8.13
			c-3.06,0-5.07,1.55-5.07,3.99c0,2.64,2.07,4.3,5.18,4.3C241.1,168.67,244.31,165.87,244.31,161.58z"/>
		<path class="st4" d="M267.87,146.61l-0.41,3.21c-0.57-0.15-1.24-0.21-2.02-0.21c-4.4,0-7.2,2.9-7.2,7.72v13.21h-3.21v-23.77
			l2.85-0.41l0.31,3.94c1.55-2.64,3.99-3.94,7.3-3.94C266.22,146.35,266.99,146.46,267.87,146.61z"/>
		<path class="st4" d="M286.67,169.55c-1.61,1.09-3.42,1.61-5.33,1.61c-4.09,0-6.68-2.64-6.68-6.94v-14.4h-4.14v-2.48l4.14-0.31
			l0.41-6.52l2.8-0.47v6.99h7.56l-0.16,2.8h-7.41v14.35c0,2.54,1.5,4.19,3.83,4.19c1.35,0,2.59-0.36,3.78-1.09L286.67,169.55z"/>
		<path class="st4" d="M299.67,159.76l-1.81-0.62c-4.51-1.61-6.42-3.26-6.42-6.42c0-3.78,3.11-6.37,7.82-6.37
			c2.85,0,5.49,0.83,7.87,2.43l-1.29,2.43c-1.81-1.5-3.99-2.23-6.42-2.23c-2.74,0-4.61,1.45-4.61,3.57c0,1.86,1.35,2.95,4.4,3.99
			l1.81,0.62c4.76,1.66,6.94,3.52,6.94,7.04c0,4.19-3.37,6.94-8.39,6.94c-3.06,0-6.78-1.14-9.32-2.85l1.29-2.54
			c2.9,1.76,5.64,2.64,8.18,2.64c2.95,0,4.92-1.71,4.92-4.19C304.64,162.15,303.04,160.95,299.67,159.76z"/>
		<path class="st4" d="M344.73,154.58v15.95h-2.85l-0.36-3.11c-1.92,2.49-4.87,3.73-8.8,3.73c-4.51,0-7.56-2.64-7.56-6.63
			c0-3.78,3.11-6.32,7.82-6.32h8.54v-3.42c0-3.37-2.49-5.65-6.27-5.65c-2.43,0-4.87,0.93-7.2,2.85l-1.35-2.23
			c2.23-2.07,5.75-3.42,8.91-3.42C341.05,146.35,344.73,149.67,344.73,154.58z M341.52,161.58v-1.19h-8.13
			c-3.06,0-5.07,1.55-5.07,3.99c0,2.64,2.07,4.3,5.18,4.3C338.31,168.67,341.52,165.87,341.52,161.58z"/>
		<path class="st4" d="M370.16,148.94c1.76,1.71,2.64,3.88,2.64,6.58v15.02h-3.21v-14.4c0-4.09-2.64-6.63-6.99-6.63
			s-6.99,2.64-6.99,6.99v14.03h-3.21v-23.77l2.85-0.41l0.36,3.68c1.71-2.43,4.25-3.68,7.72-3.68
			C366.17,146.35,368.45,147.23,370.16,148.94z"/>
		<path class="st4" d="M399.42,136.41l3.21-0.41v34.54h-2.85l-0.31-3.42c-2.02,2.69-5.13,4.04-9.32,4.04
			c-3.42,0-6.16-1.14-8.29-3.36c-2.07-2.23-3.11-5.18-3.11-8.86c0-3.78,1.14-6.84,3.47-9.12c2.33-2.33,5.39-3.47,9.17-3.47
			c3.11,0,5.8,0.93,8.08,2.75L399.42,136.41z M399.42,152.41c-2.02-1.92-5.07-3.16-7.77-3.16c-2.85,0-5.18,0.88-6.94,2.69
			c-1.76,1.76-2.64,4.04-2.64,6.89s0.78,5.13,2.38,6.89c1.61,1.76,3.73,2.64,6.32,2.64c5.18,0,8.65-3.11,8.65-7.66V152.41z"/>
		<path class="st4" d="M424.43,138.01c0-1.45,1.09-2.43,2.59-2.43c1.45,0,2.43,0.98,2.43,2.43c0,1.4-0.98,2.28-2.43,2.28
			C425.41,140.29,424.43,139.41,424.43,138.01z M425.36,170.54v-23.51h3.16v23.51H425.36z"/>
		<path class="st4" d="M455.19,148.94c1.76,1.71,2.64,3.88,2.64,6.58v15.02h-3.21v-14.4c0-4.09-2.64-6.63-6.99-6.63
			c-4.35,0-6.99,2.64-6.99,6.99v14.03h-3.21v-23.77l2.85-0.41l0.36,3.68c1.71-2.43,4.25-3.68,7.72-3.68
			C451.2,146.35,453.48,147.23,455.19,148.94z"/>
		<path class="st4" d="M472.64,159.76l-1.81-0.62c-4.51-1.61-6.42-3.26-6.42-6.42c0-3.78,3.11-6.37,7.82-6.37
			c2.85,0,5.49,0.83,7.87,2.43l-1.3,2.43c-1.81-1.5-3.99-2.23-6.42-2.23c-2.75,0-4.61,1.45-4.61,3.57c0,1.86,1.35,2.95,4.4,3.99
			l1.81,0.62c4.76,1.66,6.94,3.52,6.94,7.04c0,4.19-3.37,6.94-8.39,6.94c-3.06,0-6.78-1.14-9.32-2.85l1.3-2.54
			c2.9,1.76,5.64,2.64,8.18,2.64c2.95,0,4.92-1.71,4.92-4.19C477.62,162.15,476.01,160.95,472.64,159.76z"/>
		<path class="st4" d="M507.03,149.72c2.12,2.23,3.16,5.18,3.16,8.86c0,3.78-1.14,6.78-3.47,9.11c-2.33,2.33-5.39,3.47-9.17,3.47
			c-3.21,0-5.9-0.88-8.08-2.69v12.17l-3.21,0.42v-34.28l2.85-0.41l0.36,4.04c2.02-2.69,5.07-4.04,9.27-4.04
			C502.22,146.35,504.96,147.49,507.03,149.72z M504.18,165.67c1.81-1.76,2.69-4.09,2.69-6.99c0-5.64-3.52-9.42-8.75-9.42
			c-5.18,0-8.65,3.06-8.65,7.61v8.34c2.02,1.86,5.07,3.11,7.77,3.11C500.09,168.31,502.42,167.43,504.18,165.67z"/>
		<path class="st4" d="M516.46,138.01c0-1.45,1.09-2.43,2.59-2.43c1.45,0,2.43,0.98,2.43,2.43c0,1.4-0.98,2.28-2.43,2.28
			C517.44,140.29,516.46,139.41,516.46,138.01z M517.39,170.54v-23.51h3.16v23.51H517.39z"/>
		<path class="st4" d="M542.3,146.61l-0.41,3.21c-0.57-0.15-1.24-0.21-2.02-0.21c-4.4,0-7.2,2.9-7.2,7.72v13.21h-3.21v-23.77
			l2.85-0.41l0.31,3.94c1.55-2.64,3.99-3.94,7.3-3.94C540.64,146.35,541.42,146.46,542.3,146.61z"/>
		<path class="st4" d="M565.6,150.03c1.97,2.43,2.8,5.59,2.49,9.58h-19.78c0.36,5.44,4.04,8.91,9.42,8.91c3,0,5.7-0.88,8.08-2.59
			l1.14,2.28c-2.9,1.97-6.06,2.95-9.42,2.95c-3.68,0-6.63-1.14-8.91-3.42c-2.28-2.28-3.42-5.28-3.42-9.06
			c0-3.68,1.09-6.68,3.31-8.91c2.23-2.28,5.18-3.42,8.8-3.42C560.89,146.35,563.69,147.59,565.6,150.03z M564.98,157.17
			c0-4.82-3.11-8.03-7.66-8.03c-4.92,0-8.39,3.11-8.96,8.03H564.98z"/>
		<path class="st4" d="M589.63,167.74c-2.23-2.28-3.37-5.28-3.37-9.01c0-3.68,1.14-6.68,3.37-8.96c2.23-2.28,5.18-3.42,8.8-3.42
			c3.68,0,6.63,1.14,8.86,3.42c2.23,2.28,3.36,5.28,3.36,8.96c0,3.73-1.14,6.73-3.36,9.01c-2.23,2.28-5.18,3.42-8.86,3.42
			C594.81,171.16,591.86,170.02,589.63,167.74z M604.86,151.94c-1.71-1.71-3.83-2.54-6.42-2.54c-5.18,0-8.96,3.63-9.01,9.37
			c-0.05,2.8,0.83,5.07,2.54,6.78c1.71,1.71,3.88,2.59,6.47,2.59c2.59,0,4.71-0.83,6.42-2.54c1.71-1.71,2.59-3.99,2.59-6.84
			S606.57,153.65,604.86,151.94z"/>
		<path class="st4" d="M630.75,169.55c-1.61,1.09-3.42,1.61-5.33,1.61c-4.09,0-6.68-2.64-6.68-6.94v-14.4h-4.14v-2.48l4.14-0.31
			l0.41-6.52l2.8-0.47v6.99h7.56l-0.15,2.8h-7.41v14.35c0,2.54,1.5,4.19,3.83,4.19c1.35,0,2.59-0.36,3.78-1.09L630.75,169.55z"/>
		<path class="st4" d="M653.64,148.99c1.76,1.76,2.64,4.09,2.64,6.99v14.55h-3.16V156.5c0-4.35-2.69-6.99-7.09-6.99
			c-4.4,0-7.09,2.64-7.09,6.99v14.03h-3.21v-34.13l3.21-0.41v14.09c1.71-2.48,4.3-3.73,7.77-3.73
			C649.55,146.35,651.88,147.23,653.64,148.99z"/>
		<path class="st4" d="M682.64,150.03c1.97,2.43,2.8,5.59,2.49,9.58h-19.78c0.36,5.44,4.04,8.91,9.42,8.91c3,0,5.7-0.88,8.08-2.59
			l1.14,2.28c-2.9,1.97-6.06,2.95-9.43,2.95c-3.68,0-6.63-1.14-8.91-3.42c-2.28-2.28-3.42-5.28-3.42-9.06
			c0-3.68,1.09-6.68,3.31-8.91c2.23-2.28,5.18-3.42,8.8-3.42C677.93,146.35,680.73,147.59,682.64,150.03z M682.02,157.17
			c0-4.82-3.11-8.03-7.66-8.03c-4.92,0-8.39,3.11-8.96,8.03H682.02z"/>
		<path class="st4" d="M703.83,146.61l-0.41,3.21c-0.57-0.15-1.24-0.21-2.02-0.21c-4.4,0-7.2,2.9-7.2,7.72v13.21h-3.21v-23.77
			l2.85-0.41l0.31,3.94c1.55-2.64,3.99-3.94,7.3-3.94C702.17,146.35,702.95,146.46,703.83,146.61z"/>
		<path class="st4" d="M715.43,159.76l-1.81-0.62c-4.51-1.61-6.42-3.26-6.42-6.42c0-3.78,3.11-6.37,7.82-6.37
			c2.85,0,5.49,0.83,7.87,2.43l-1.3,2.43c-1.81-1.5-3.99-2.23-6.42-2.23c-2.75,0-4.61,1.45-4.61,3.57c0,1.86,1.35,2.95,4.4,3.99
			l1.81,0.62c4.76,1.66,6.94,3.52,6.94,7.04c0,4.19-3.37,6.94-8.39,6.94c-3.06,0-6.78-1.14-9.32-2.85l1.3-2.54
			c2.9,1.76,5.64,2.64,8.18,2.64c2.95,0,4.92-1.71,4.92-4.19C720.4,162.15,718.79,160.95,715.43,159.76z"/>
	</g>
</g>
</svg>
