<svg id="Layer_1" data-name="Layer 1" xmlns="http://www.w3.org/2000/svg" viewBox="0 0 600 600"><defs><style>.cls-1{fill:#183945;}</style></defs><path class="cls-1" d="M23.4,589.71c76.2-98.45,128.5-211,188-320,29.83-54.54,62.45-108.21,102-157.2l15.38-17.92,7.74-8.93,8.25-8.47,16.59-16.88a40.52,40.52,0,0,1,5.5-5,21.19,21.19,0,0,1,10.78-3.68,21.42,21.42,0,0,1,19.12,10.1,20.38,20.38,0,0,1,3,11.12,23,23,0,0,1-.78,5.49l-.82,2.86L394.9,92.36c-2.14,7.52-4.47,15-6.79,22.41-4.61,14.91-9.47,29.71-14.42,44.45C353.6,218.09,332,276.07,314.76,335.11a866.35,866.35,0,0,0-21.69,89.33l-2,11.3-1,5.61a2.11,2.11,0,0,0,0,.82c0,.36.8,1,1.44,1a1.53,1.53,0,0,0,.75-.06c.22-.17.27-.06,2.05-1.9l32.63-33.14,65.31-66.22,32.8-33,8.19-8.25,4.1-4.12,2.09-2.09a32.25,32.25,0,0,1,2.61-2.34c7.2-5.91,17.52-8.68,27.07-5.37a20.63,20.63,0,0,1,11.12,10,43.31,43.31,0,0,1,3.91,12.39,141.8,141.8,0,0,1-4.65,70.74c-2.47,7.55-5.66,14.61-8,21.84s-4,14.65-2.86,22c.71,7.32,6.23,13.46,13.06,16.55a19.73,19.73,0,0,0,11,1.78,11.9,11.9,0,0,0,9-6.34,12.34,12.34,0,0,1-8.83,7.13,20.91,20.91,0,0,1-11.75-1.09c-7.39-2.68-14.16-9.1-15.6-17.45-1.72-8-.3-16.27,1.76-23.84s4.92-14.89,6.9-22.19a134.91,134.91,0,0,0,4.47-44.93,132.84,132.84,0,0,0-3.44-22.23c-1.62-7.32-4.53-13.28-9.43-14.52a18,18,0,0,0-16.43,4.25,20.9,20.9,0,0,0-1.66,1.6l-2,2.1-3.94,4.27L434,317.35,402.4,351.51,339,419.57l-31.73,34a25.15,25.15,0,0,1-6.77,5.57,19.52,19.52,0,0,1-10.53,2,19.87,19.87,0,0,1-16.55-11.84A20.31,20.31,0,0,1,272,438.76l.92-5.86,1.83-11.64a881,881,0,0,1,20.69-91.68C312.36,269.37,334,211,353.6,152.43c5-14.62,9.89-29.25,14.52-43.94,2.33-7.34,4.66-14.68,6.81-22.06l3.29-11.05.81-2.72c-.06-.12.09-.25,0-.24s.1.06.06,0-.48-.38-.47-.29l-.06,0c.35-.39-1.83,1.76-3,2.92L359.54,91.33l-8,8.13L344,108.07l-15.13,17.16c-39.31,46.85-71.8,99.34-103.11,152.55-31,53.43-60.62,108.08-93.14,161.09C99.77,491.62,64.72,543.34,23.4,589.71Z"/></svg>